<?xml version="1.0" standalone="no"?>
<!DOCTYPE svg PUBLIC "-//W3C//DTD SVG 20010904//EN"
 "http://www.w3.org/TR/2001/REC-SVG-20010904/DTD/svg10.dtd">
<svg version="1.0" xmlns="http://www.w3.org/2000/svg"
 width="400.000000pt" height="400.000000pt" viewBox="0 0 400.000000 400.000000"
 preserveAspectRatio="xMidYMid meet">
<metadata>
Created by potrace 1.11, written by Peter Selinger 2001-2013
</metadata>
<g transform="translate(0.000000,400.000000) scale(0.100000,-0.100000)"
fill="#000000" stroke="none">
<path d="M0 2000 l0 -2000 2000 0 2000 0 0 2000 0 2000 -2000 0 -2000 0 0
-2000z m2151 1743 c38 -23 37 -37 -3 -29 -33 6 -58 23 -58 37 0 14 30 10 61
-8z m242 -47 c32 -7 65 -20 75 -29 31 -27 116 -64 161 -70 48 -6 87 -37 117
-94 13 -24 35 -42 70 -59 41 -19 55 -33 74 -71 13 -27 32 -60 43 -75 21 -32
61 -145 71 -203 4 -22 13 -60 20 -85 8 -25 19 -65 26 -90 13 -45 72 -229 92
-285 6 -16 21 -66 34 -110 19 -61 33 -86 61 -112 35 -33 36 -34 28 -86 -17
-112 -8 -233 21 -284 14 -25 24 -58 24 -81 0 -22 7 -76 15 -119 9 -47 13 -98
9 -130 -5 -43 -2 -61 20 -108 14 -32 26 -65 26 -75 0 -64 -57 -120 -123 -120
-23 0 -37 -6 -41 -16 -3 -9 -6 -62 -6 -119 0 -56 -7 -140 -15 -186 -18 -94
-112 -381 -150 -458 -37 -73 -133 -171 -168 -171 -35 0 -35 19 -2 94 22 50 52
137 85 251 6 22 13 63 15 90 3 28 12 107 22 178 13 99 14 130 5 139 -9 9 -16
8 -29 -5 -14 -14 -16 -37 -14 -160 2 -141 2 -144 -35 -257 -41 -124 -97 -212
-184 -287 -95 -83 -184 -99 -131 -24 23 32 28 100 9 119 -18 18 -43 15 -63 -8
-10 -11 -23 -16 -29 -12 -6 4 -31 7 -56 8 -25 0 -65 4 -89 9 -43 8 -44 8 -39
-17 5 -25 3 -26 -85 -38 -81 -12 -90 -12 -99 3 -10 19 -53 23 -63 7 -11 -18
-26 -10 -20 10 8 27 -33 45 -54 24 -13 -12 -18 -11 -33 3 -14 13 -23 14 -42 5
-20 -9 -30 -6 -60 14 -20 14 -36 31 -36 39 0 8 -6 15 -14 15 -14 0 -62 40
-145 120 -42 40 -67 91 -77 157 -4 28 -17 60 -31 77 -13 16 -23 38 -21 50 4
27 36 33 52 10 7 -9 17 -14 23 -11 6 4 21 -5 33 -18 13 -14 34 -25 47 -25 19
0 23 -5 23 -30 0 -19 5 -30 14 -30 7 0 16 -9 19 -21 3 -11 15 -23 26 -26 12
-3 21 -13 21 -22 0 -9 13 -22 29 -28 18 -6 29 -17 28 -28 -2 -13 10 -21 43
-29 31 -7 48 -18 55 -34 12 -26 50 -29 83 -6 13 9 30 13 39 10 9 -4 25 0 37 7
67 44 208 79 316 79 14 0 31 4 37 10 9 7 22 7 42 0 22 -8 32 -7 40 2 15 18 -7
60 -39 73 -57 24 -66 26 -88 28 -13 0 -26 -3 -28 -7 -8 -13 -34 -9 -32 4 4 17
-80 34 -94 20 -16 -16 0 -28 20 -16 18 12 62 2 62 -14 0 -29 -68 -41 -130 -23
-16 5 -42 1 -72 -10 -61 -24 -140 -10 -97 16 6 4 -2 18 -20 36 -33 31 -57 38
-48 15 13 -33 -70 -25 -145 15 -10 5 -25 9 -33 9 -19 0 -20 19 0 26 31 12 15
42 -37 72 -93 53 -121 93 -70 100 13 2 47 -15 88 -44 65 -46 70 -48 153 -54
116 -8 314 5 381 25 30 9 78 20 105 24 28 4 60 12 72 19 12 7 31 12 42 12 11
0 26 11 33 24 42 79 89 134 118 140 40 7 63 -13 58 -53 -1 -16 4 -36 12 -46
10 -12 11 -21 4 -33 -8 -11 -5 -26 8 -54 10 -21 23 -49 28 -63 5 -14 16 -25
23 -25 18 0 32 79 17 94 -20 20 -10 55 24 83 29 22 33 30 25 46 -8 14 -7 23 5
36 14 15 15 37 10 142 -3 71 -11 132 -18 144 -20 32 -37 90 -42 147 -6 67 -25
89 -49 60 -15 -16 -23 -18 -49 -11 -52 15 -89 36 -135 77 -24 22 -62 45 -85
52 -22 6 -57 22 -76 34 -19 13 -45 26 -58 30 -12 4 -22 15 -22 25 0 10 -7 25
-16 32 -14 11 -18 11 -29 -4 -7 -9 -20 -17 -29 -17 -10 0 -16 -8 -16 -21 0
-20 29 -52 89 -97 28 -21 43 -62 24 -62 -5 0 -19 -16 -32 -36 -26 -37 -91 -77
-119 -72 -9 2 -17 13 -17 28 -4 80 -4 80 -34 80 -17 0 -32 -4 -35 -9 -3 -4
-17 -6 -31 -3 -15 2 -25 0 -25 -7 0 -6 -8 -11 -18 -11 -10 0 -33 -20 -52 -45
l-34 -45 -65 6 c-112 9 -111 9 -111 56 0 44 29 102 61 118 27 15 23 42 -11 75
-25 24 -31 26 -46 14 -9 -7 -20 -22 -25 -34 -38 -82 -90 -136 -135 -142 -22
-3 -48 -13 -59 -22 -11 -10 -31 -16 -45 -14 -43 7 -115 9 -128 5 -29 -10 -54
-104 -52 -201 0 -13 -5 -30 -11 -37 -6 -8 -9 -21 -5 -30 3 -8 -1 -28 -9 -45
-10 -19 -14 -47 -11 -83 5 -64 -6 -84 -50 -89 -17 -2 -40 -10 -53 -19 -18 -13
-19 -16 -6 -22 22 -8 1 -46 -25 -46 -11 0 -20 -6 -21 -12 0 -10 -2 -10 -6 0
-2 6 -18 12 -35 12 -24 0 -43 -12 -81 -50 -55 -55 -76 -54 -75 1 1 33 -14 55
-31 45 -14 -9 -51 -94 -51 -117 0 -26 -59 -56 -72 -37 -20 30 -26 45 -32 84
-6 36 -5 42 13 47 15 4 21 13 21 32 0 22 3 26 18 20 41 -16 88 -17 101 -1 20
24 19 135 -4 314 -4 32 -2 44 10 48 20 8 19 31 -3 43 -15 8 -18 21 -16 86 1
41 7 82 14 90 6 8 9 23 6 33 -4 11 -1 32 5 46 10 20 10 29 1 38 -7 7 -12 20
-12 29 0 20 32 79 43 79 4 0 7 14 7 31 0 27 -2 30 -15 19 -13 -11 -15 -8 -15
14 0 32 40 61 70 51 16 -5 20 -13 16 -28 -3 -11 -1 -28 5 -39 7 -12 5 -26 -5
-46 -18 -35 -4 -57 25 -42 13 7 22 5 34 -6 8 -9 22 -17 30 -18 25 -4 55 -44
55 -73 l0 -28 18 22 c9 12 34 25 55 28 35 7 37 6 37 -17 0 -24 1 -25 52 -17
39 6 58 15 75 36 30 38 28 63 -8 92 -39 31 -80 30 -130 -3 -21 -14 -52 -26
-68 -26 -16 0 -33 -5 -36 -10 -4 -6 -11 -7 -17 -4 -6 4 -6 10 1 17 6 6 11 19
11 29 0 16 18 24 44 19 4 -1 29 8 55 21 25 12 51 21 56 19 6 -2 28 -5 50 -6
22 -1 67 -8 100 -15 119 -24 179 -24 226 1 56 28 109 70 109 87 0 6 9 12 20
12 18 0 20 -4 14 -35 -7 -39 0 -43 34 -19 15 10 21 22 17 32 -3 8 0 19 6 23 7
4 11 28 11 55 -6 225 -2 274 23 274 22 0 19 7 -22 43 -41 36 -75 42 -168 28
-33 -6 -100 -15 -150 -22 -49 -7 -94 -15 -100 -19 -5 -4 -46 -10 -90 -13 -44
-4 -105 -16 -135 -28 -80 -30 -87 -32 -115 -25 -16 4 -25 13 -25 26 0 32 -39
64 -77 63 -44 -1 -33 13 15 21 22 3 45 12 51 20 10 12 6 18 -24 32 -37 17 -50
14 -50 -13 0 -37 -24 -21 -40 26 -9 28 -21 53 -26 56 -5 4 -9 17 -9 30 0 17
-7 25 -27 30 -36 9 -53 23 -53 45 0 10 -9 24 -21 31 -13 9 -22 29 -26 56 -5
35 -2 43 16 55 11 7 21 22 21 32 0 36 42 140 78 191 45 64 134 150 175 170 18
8 68 24 112 35 44 11 88 29 99 39 15 16 23 17 43 8 18 -8 29 -8 44 1 10 7 30
12 45 12 17 0 28 6 31 19 4 14 17 21 53 26 28 4 51 13 54 21 4 11 16 13 44 8
28 -4 48 -1 73 12 29 16 57 19 199 19 91 0 171 4 179 9 8 5 27 11 43 12 69 8
114 50 85 79 -45 44 -3 57 106 31z m-1326 -1132 c-3 -3 -12 -4 -19 -1 -8 3 -5
6 6 6 11 1 17 -2 13 -5z m3 -88 c0 -11 -19 -15 -25 -6 -3 5 1 10 9 10 9 0 16
-2 16 -4z m-70 -176 c0 -5 -4 -10 -10 -10 -5 0 -10 5 -10 10 0 6 5 10 10 10 6
0 10 -4 10 -10z m336 -36 c-3 -9 -6 -19 -6 -24 0 -16 -31 -40 -51 -40 -16 0
-19 4 -13 23 9 30 35 56 58 56 12 1 16 -4 12 -15z m308 -10 c39 -15 -49 -76
-127 -88 -92 -14 -137 -16 -137 -6 0 6 8 13 18 17 9 3 40 16 69 29 28 13 58
24 65 24 8 0 18 4 24 9 5 5 20 11 34 14 14 2 28 5 32 6 3 0 13 -2 22 -5z
m-494 -164 c0 -5 -4 -10 -9 -10 -6 0 -13 5 -16 10 -3 6 1 10 9 10 9 0 16 -4
16 -10z m-436 -106 c31 -38 29 -54 -7 -35 -44 24 -57 38 -51 55 9 24 26 18 58
-20z m1814 -196 c18 -18 15 -27 -13 -38 -16 -6 -25 -17 -25 -32 -1 -23 -1 -23
-14 2 -15 25 -7 56 18 72 15 10 20 10 34 -4z m-1068 -8 c0 -5 -4 -10 -10 -10
-5 0 -10 5 -10 10 0 6 5 10 10 10 6 0 10 -4 10 -10z m-710 -80 c0 -11 -2 -20
-4 -20 -2 0 -11 -3 -20 -6 -11 -4 -16 0 -16 14 0 18 11 29 33 31 4 1 7 -8 7
-19z m1720 -54 c0 -7 -9 -16 -20 -19 -19 -5 -28 12 -13 26 11 12 33 7 33 -7z
m-1716 -42 c10 -25 7 -34 -9 -34 -8 0 -15 -4 -15 -9 0 -5 7 -11 15 -15 9 -3
15 -18 15 -34 0 -16 6 -35 14 -41 8 -6 20 -25 27 -42 11 -27 16 -30 46 -27 29
3 37 -1 59 -29 l25 -33 -36 -16 c-33 -14 -39 -14 -60 0 -13 9 -30 13 -38 11
-27 -11 -50 33 -57 108 -4 39 -12 84 -18 98 -12 30 -11 61 3 71 15 12 22 10
29 -8z m1046 -20 c0 -18 -14 -18 -30 1 -16 19 -3 40 16 24 8 -6 14 -18 14 -25z
m614 -49 c-4 -8 -13 -15 -21 -15 -13 0 -13 3 -3 15 7 8 16 15 21 15 5 0 6 -7
3 -15z m-294 -35 c0 -5 -9 -10 -20 -10 -11 0 -20 5 -20 10 0 6 9 10 20 10 11
0 20 -4 20 -10z m-1181 -42 c1 -5 -3 -8 -9 -8 -5 0 -10 12 -9 28 0 24 1 25 9
7 5 -11 9 -23 9 -27z m1951 -55 c0 -5 -7 -17 -15 -27 -14 -19 -15 -19 -15 7 0
17 5 27 15 27 8 0 15 -3 15 -7z m-383 -37 c40 -35 21 -47 -73 -50 -47 -2 -94
-10 -116 -19 -23 -11 -48 -14 -67 -11 -18 4 -37 2 -45 -5 -8 -7 -34 -13 -58
-15 -23 -2 -59 -6 -79 -10 -48 -10 -74 12 -57 49 11 25 42 34 53 15 11 -17 44
-11 55 10 6 11 21 20 34 20 13 0 31 -9 41 -20 24 -27 30 -26 54 15 23 40 49
45 76 14 l19 -20 18 23 c15 20 20 22 39 10 18 -12 24 -11 37 2 22 22 36 20 69
-8z m-1170 -83 c-8 -9 -20 -12 -27 -8 -8 5 -6 11 7 20 23 17 39 7 20 -12z
m638 -8 c0 -23 -5 -31 -22 -33 -20 -3 -23 1 -23 33 0 32 3 36 23 33 17 -2 22
-10 22 -33z m-435 -71 c0 -8 -4 -14 -10 -14 -5 0 -10 9 -10 21 0 11 5 17 10
14 6 -3 10 -13 10 -21z m250 -179 c0 -8 -7 -15 -15 -15 -16 0 -20 12 -8 23 11
12 23 8 23 -8z m-231 -319 c22 -23 22 -25 5 -51 -21 -31 -48 -29 -52 5 -2 14
-7 29 -12 34 -13 13 0 36 19 36 10 0 28 -11 40 -24z m81 -106 c11 -11 20 -24
20 -30 0 -19 -42 -10 -71 14 -31 27 -33 24 24 35 4 0 16 -8 27 -19z m70 -110
c0 -5 -4 -10 -10 -10 -5 0 -10 5 -10 10 0 6 5 10 10 10 6 0 10 -4 10 -10z m42
-32 c8 -7 25 -28 37 -45 17 -25 19 -33 8 -33 -8 0 -20 7 -28 16 -8 10 -21 13
-36 9 -20 -5 -23 -2 -23 23 0 42 14 52 42 30z m110 -113 c0 -5 -5 -11 -11 -13
-6 -2 -11 4 -11 13 0 9 5 15 11 13 6 -2 11 -8 11 -13z"/>
<path d="M2342 3619 c2 -7 14 -14 27 -16 15 -2 21 1 19 9 -3 7 -15 15 -27 16
-15 3 -22 -1 -19 -9z"/>
<path d="M2592 3488 c-10 -40 -22 -44 -52 -18 -27 23 -60 26 -60 5 0 -8 52
-60 115 -117 63 -56 118 -111 121 -121 3 -10 18 -23 32 -28 21 -8 29 -7 39 7
11 14 17 15 38 6 14 -6 25 -19 25 -27 0 -9 -5 -13 -11 -10 -5 4 -21 4 -35 1
-31 -8 -31 -36 0 -72 l23 -28 12 23 c7 12 10 29 7 38 -3 8 3 27 14 43 30 42
25 62 -30 135 -27 36 -50 74 -50 84 0 18 -59 71 -78 71 -5 0 -17 9 -27 20 -10
11 -31 20 -46 20 -24 0 -30 -6 -37 -32z"/>
<path d="M1025 2857 c-8 -19 12 -50 26 -41 13 7 11 17 -5 40 -14 18 -15 18
-21 1z"/>
<path d="M2477 2769 c-48 -4 -102 -13 -120 -19 -18 -7 -52 -16 -77 -21 -114
-20 -141 -31 -186 -75 -40 -38 -45 -47 -39 -74 4 -17 23 -44 46 -63 25 -22 39
-42 39 -58 0 -13 7 -37 15 -53 8 -15 15 -33 15 -40 0 -6 11 -32 24 -58 16 -31
23 -58 20 -78 -4 -23 -1 -30 10 -30 9 0 16 7 16 15 0 8 14 22 31 30 29 15 32
15 77 -11 40 -23 60 -27 127 -28 115 -2 229 30 223 62 -3 15 -16 17 -91 17
-79 0 -86 1 -81 17 3 10 1 18 -5 18 -5 0 -26 10 -46 22 l-37 21 42 14 c34 12
55 12 110 3 58 -10 73 -9 99 4 16 9 37 16 46 16 19 0 65 29 65 41 0 5 -13 9
-29 9 -25 0 -54 17 -126 77 -11 9 -38 18 -60 20 -22 1 -64 5 -94 9 -50 7 -52
8 -30 19 17 8 45 9 99 3 41 -5 100 -9 129 -9 33 0 64 -5 78 -14 32 -22 29 -3
-12 70 -27 48 -43 64 -84 85 -28 15 -61 36 -74 48 -13 12 -25 21 -28 21 -2 -1
-44 -5 -92 -10z"/>
<path d="M1853 2095 c-3 -9 -3 -18 0 -21 6 -7 47 18 47 28 0 15 -41 8 -47 -7z"/>
<path d="M1163 1903 c-10 -3 -9 -12 3 -36 21 -40 21 -40 33 -33 6 4 6 16 -1
36 -11 34 -17 39 -35 33z"/>
<path d="M2740 1320 c0 -5 5 -10 10 -10 6 0 10 5 10 10 0 6 -4 10 -10 10 -5 0
-10 -4 -10 -10z"/>
<path d="M2596 1017 c-21 -16 -18 -50 5 -55 11 -2 18 6 22 25 7 35 -4 47 -27
30z"/>
<path d="M1645 890 c-3 -5 -2 -10 4 -10 5 0 13 5 16 10 3 6 2 10 -4 10 -5 0
-13 -4 -16 -10z"/>
<path d="M2120 656 c0 -20 25 -37 44 -30 19 7 20 16 4 32 -16 16 -48 15 -48
-2z"/>
<path d="M2160 580 c0 -5 5 -10 11 -10 5 0 7 5 4 10 -3 6 -8 10 -11 10 -2 0
-4 -4 -4 -10z"/>
</g>
</svg>
